<?xml version="1.0" encoding="utf-8" standalone="no"?>
<!DOCTYPE svg PUBLIC "-//W3C//DTD SVG 1.1//EN"
  "http://www.w3.org/Graphics/SVG/1.1/DTD/svg11.dtd">
<svg xmlns:xlink="http://www.w3.org/1999/xlink" width="518.4pt" height="244.8pt" viewBox="0 0 518.4 244.8" xmlns="http://www.w3.org/2000/svg" version="1.1">
 <metadata>
  <rdf:RDF xmlns:dc="http://purl.org/dc/elements/1.1/" xmlns:cc="http://creativecommons.org/ns#" xmlns:rdf="http://www.w3.org/1999/02/22-rdf-syntax-ns#">
   <cc:Work>
    <dc:type rdf:resource="http://purl.org/dc/dcmitype/StillImage"/>
    <dc:date>2026-07-23T14:04:14.990512</dc:date>
    <dc:format>image/svg+xml</dc:format>
    <dc:creator>
     <cc:Agent>
      <dc:title>Matplotlib v3.11.0, https://matplotlib.org/</dc:title>
     </cc:Agent>
    </dc:creator>
   </cc:Work>
  </rdf:RDF>
 </metadata>
 <defs>
  <style type="text/css">*{stroke-linejoin: round; stroke-linecap: butt}</style>
 </defs>
 <g id="figure_1">
  <g id="patch_1">
   <path d="M 0 244.8 
L 518.4 244.8 
L 518.4 0 
L 0 0 
z
" style="fill: #ffffff"/>
  </g>
  <g id="axes_1">
   <g id="patch_2">
    <path d="M 124.135 202.677656 
L 507.6 202.677656 
L 507.6 26.16 
L 124.135 26.16 
z
" style="fill: #ffffff"/>
   </g>
   <g id="patch_3">
    <path d="M 124.135 34.18353 
L 351.944767 34.18353 
L 351.944767 55.718545 
L 124.135 55.718545 
z
" clip-path="url(#p3ada59a2c3)" style="fill: #0072b2; stroke: #000000; stroke-width: 0.6; stroke-linejoin: miter"/>
   </g>
   <g id="patch_4">
    <path d="M 124.135 68.917425 
L 314.715155 68.917425 
L 314.715155 90.45244 
L 124.135 90.45244 
z
" clip-path="url(#p3ada59a2c3)" style="fill: #e69f00; stroke: #000000; stroke-width: 0.6; stroke-linejoin: miter"/>
   </g>
   <g id="patch_5">
    <path d="M 124.135 103.651321 
L 396.265733 103.651321 
L 396.265733 125.186336 
L 124.135 125.186336 
z
" clip-path="url(#p3ada59a2c3)" style="fill: #e69f00; stroke: #000000; stroke-width: 0.6; stroke-linejoin: miter"/>
   </g>
   <g id="patch_6">
    <path d="M 124.135 138.385216 
L 182.638675 138.385216 
L 182.638675 159.920231 
L 124.135 159.920231 
z
" clip-path="url(#p3ada59a2c3)" style="fill: #e69f00; stroke: #000000; stroke-width: 0.6; stroke-linejoin: miter"/>
   </g>
   <g id="patch_7">
    <path d="M 124.135 173.119111 
L 200.810272 173.119111 
L 200.810272 194.654126 
L 124.135 194.654126 
z
" clip-path="url(#p3ada59a2c3)" style="fill: #999999; stroke: #000000; stroke-width: 0.6; stroke-linejoin: miter"/>
   </g>
   <g id="matplotlib.axis_1">
    <g id="xtick_1">
     <g id="line2d_1">
      <defs>
       <path id="m2b16071234" d="M 0 0 
L 0 3.5 
" style="stroke: #000000; stroke-width: 0.8"/>
      </defs>
      <g>
       <use xlink:href="#m2b16071234" x="124.135" y="202.677656" style="stroke: #000000; stroke-width: 0.8"/>
      </g>
     </g>
     <g id="text_1">
      <!-- 0.0 -->
      <g transform="translate(116.183438 217.275312) scale(0.1 -0.1)">
       <defs>
        <path id="DejaVuSans-13" d="M 2034 4250 
Q 1547 4250 1301 3770 
Q 1056 3291 1056 2328 
Q 1056 1369 1301 889 
Q 1547 409 2034 409 
Q 2525 409 2770 889 
Q 3016 1369 3016 2328 
Q 3016 3291 2770 3770 
Q 2525 4250 2034 4250 
z
M 2034 4750 
Q 2819 4750 3233 4129 
Q 3647 3509 3647 2328 
Q 3647 1150 3233 529 
Q 2819 -91 2034 -91 
Q 1250 -91 836 529 
Q 422 1150 422 2328 
Q 422 3509 836 4129 
Q 1250 4750 2034 4750 
z
" transform="scale(0.015625)"/>
        <path id="DejaVuSans-11" d="M 684 794 
L 1344 794 
L 1344 0 
L 684 0 
L 684 794 
z
" transform="scale(0.015625)"/>
       </defs>
       <use xlink:href="#DejaVuSans-13"/>
       <use xlink:href="#DejaVuSans-11" transform="translate(63.625 0)"/>
       <use xlink:href="#DejaVuSans-13" transform="translate(95.40625 0)"/>
      </g>
     </g>
    </g>
    <g id="xtick_2">
     <g id="line2d_2">
      <g>
       <use xlink:href="#m2b16071234" x="168.455966" y="202.677656" style="stroke: #000000; stroke-width: 0.8"/>
      </g>
     </g>
     <g id="text_2">
      <!-- 0.1 -->
      <g transform="translate(160.504404 217.275312) scale(0.1 -0.1)">
       <defs>
        <path id="DejaVuSans-14" d="M 794 531 
L 1825 531 
L 1825 4091 
L 703 3866 
L 703 4441 
L 1819 4666 
L 2450 4666 
L 2450 531 
L 3481 531 
L 3481 0 
L 794 0 
L 794 531 
z
" transform="scale(0.015625)"/>
       </defs>
       <use xlink:href="#DejaVuSans-13"/>
       <use xlink:href="#DejaVuSans-11" transform="translate(63.625 0)"/>
       <use xlink:href="#DejaVuSans-14" transform="translate(95.40625 0)"/>
      </g>
     </g>
    </g>
    <g id="xtick_3">
     <g id="line2d_3">
      <g>
       <use xlink:href="#m2b16071234" x="212.776933" y="202.677656" style="stroke: #000000; stroke-width: 0.8"/>
      </g>
     </g>
     <g id="text_3">
      <!-- 0.2 -->
      <g transform="translate(204.82537 217.275312) scale(0.1 -0.1)">
       <defs>
        <path id="DejaVuSans-15" d="M 1228 531 
L 3431 531 
L 3431 0 
L 469 0 
L 469 531 
Q 828 903 1448 1529 
Q 2069 2156 2228 2338 
Q 2531 2678 2651 2914 
Q 2772 3150 2772 3378 
Q 2772 3750 2511 3984 
Q 2250 4219 1831 4219 
Q 1534 4219 1204 4116 
Q 875 4013 500 3803 
L 500 4441 
Q 881 4594 1212 4672 
Q 1544 4750 1819 4750 
Q 2544 4750 2975 4387 
Q 3406 4025 3406 3419 
Q 3406 3131 3298 2873 
Q 3191 2616 2906 2266 
Q 2828 2175 2409 1742 
Q 1991 1309 1228 531 
z
" transform="scale(0.015625)"/>
       </defs>
       <use xlink:href="#DejaVuSans-13"/>
       <use xlink:href="#DejaVuSans-11" transform="translate(63.625 0)"/>
       <use xlink:href="#DejaVuSans-15" transform="translate(95.40625 0)"/>
      </g>
     </g>
    </g>
    <g id="xtick_4">
     <g id="line2d_4">
      <g>
       <use xlink:href="#m2b16071234" x="257.097899" y="202.677656" style="stroke: #000000; stroke-width: 0.8"/>
      </g>
     </g>
     <g id="text_4">
      <!-- 0.3 -->
      <g transform="translate(249.146336 217.275312) scale(0.1 -0.1)">
       <defs>
        <path id="DejaVuSans-16" d="M 2597 2516 
Q 3050 2419 3304 2112 
Q 3559 1806 3559 1356 
Q 3559 666 3084 287 
Q 2609 -91 1734 -91 
Q 1441 -91 1130 -33 
Q 819 25 488 141 
L 488 750 
Q 750 597 1062 519 
Q 1375 441 1716 441 
Q 2309 441 2620 675 
Q 2931 909 2931 1356 
Q 2931 1769 2642 2001 
Q 2353 2234 1838 2234 
L 1294 2234 
L 1294 2753 
L 1863 2753 
Q 2328 2753 2575 2939 
Q 2822 3125 2822 3475 
Q 2822 3834 2567 4026 
Q 2313 4219 1838 4219 
Q 1578 4219 1281 4162 
Q 984 4106 628 3988 
L 628 4550 
Q 988 4650 1302 4700 
Q 1616 4750 1894 4750 
Q 2613 4750 3031 4423 
Q 3450 4097 3450 3541 
Q 3450 3153 3228 2886 
Q 3006 2619 2597 2516 
z
" transform="scale(0.015625)"/>
       </defs>
       <use xlink:href="#DejaVuSans-13"/>
       <use xlink:href="#DejaVuSans-11" transform="translate(63.625 0)"/>
       <use xlink:href="#DejaVuSans-16" transform="translate(95.40625 0)"/>
      </g>
     </g>
    </g>
    <g id="xtick_5">
     <g id="line2d_5">
      <g>
       <use xlink:href="#m2b16071234" x="301.418865" y="202.677656" style="stroke: #000000; stroke-width: 0.8"/>
      </g>
     </g>
     <g id="text_5">
      <!-- 0.4 -->
      <g transform="translate(293.467303 217.275312) scale(0.1 -0.1)">
       <defs>
        <path id="DejaVuSans-17" d="M 2419 4116 
L 825 1625 
L 2419 1625 
L 2419 4116 
z
M 2253 4666 
L 3047 4666 
L 3047 1625 
L 3713 1625 
L 3713 1100 
L 3047 1100 
L 3047 0 
L 2419 0 
L 2419 1100 
L 313 1100 
L 313 1709 
L 2253 4666 
z
" transform="scale(0.015625)"/>
       </defs>
       <use xlink:href="#DejaVuSans-13"/>
       <use xlink:href="#DejaVuSans-11" transform="translate(63.625 0)"/>
       <use xlink:href="#DejaVuSans-17" transform="translate(95.40625 0)"/>
      </g>
     </g>
    </g>
    <g id="xtick_6">
     <g id="line2d_6">
      <g>
       <use xlink:href="#m2b16071234" x="345.739831" y="202.677656" style="stroke: #000000; stroke-width: 0.8"/>
      </g>
     </g>
     <g id="text_6">
      <!-- 0.5 -->
      <g transform="translate(337.788269 217.275312) scale(0.1 -0.1)">
       <defs>
        <path id="DejaVuSans-18" d="M 691 4666 
L 3169 4666 
L 3169 4134 
L 1269 4134 
L 1269 2991 
Q 1406 3038 1543 3061 
Q 1681 3084 1819 3084 
Q 2600 3084 3056 2656 
Q 3513 2228 3513 1497 
Q 3513 744 3044 326 
Q 2575 -91 1722 -91 
Q 1428 -91 1123 -41 
Q 819 9 494 109 
L 494 744 
Q 775 591 1075 516 
Q 1375 441 1709 441 
Q 2250 441 2565 725 
Q 2881 1009 2881 1497 
Q 2881 1984 2565 2268 
Q 2250 2553 1709 2553 
Q 1456 2553 1204 2497 
Q 953 2441 691 2322 
L 691 4666 
z
" transform="scale(0.015625)"/>
       </defs>
       <use xlink:href="#DejaVuSans-13"/>
       <use xlink:href="#DejaVuSans-11" transform="translate(63.625 0)"/>
       <use xlink:href="#DejaVuSans-18" transform="translate(95.40625 0)"/>
      </g>
     </g>
    </g>
    <g id="xtick_7">
     <g id="line2d_7">
      <g>
       <use xlink:href="#m2b16071234" x="390.060798" y="202.677656" style="stroke: #000000; stroke-width: 0.8"/>
      </g>
     </g>
     <g id="text_7">
      <!-- 0.6 -->
      <g transform="translate(382.109235 217.275312) scale(0.1 -0.1)">
       <defs>
        <path id="DejaVuSans-19" d="M 2113 2584 
Q 1688 2584 1439 2293 
Q 1191 2003 1191 1497 
Q 1191 994 1439 701 
Q 1688 409 2113 409 
Q 2538 409 2786 701 
Q 3034 994 3034 1497 
Q 3034 2003 2786 2293 
Q 2538 2584 2113 2584 
z
M 3366 4563 
L 3366 3988 
Q 3128 4100 2886 4159 
Q 2644 4219 2406 4219 
Q 1781 4219 1451 3797 
Q 1122 3375 1075 2522 
Q 1259 2794 1537 2939 
Q 1816 3084 2150 3084 
Q 2853 3084 3261 2657 
Q 3669 2231 3669 1497 
Q 3669 778 3244 343 
Q 2819 -91 2113 -91 
Q 1303 -91 875 529 
Q 447 1150 447 2328 
Q 447 3434 972 4092 
Q 1497 4750 2381 4750 
Q 2619 4750 2861 4703 
Q 3103 4656 3366 4563 
z
" transform="scale(0.015625)"/>
       </defs>
       <use xlink:href="#DejaVuSans-13"/>
       <use xlink:href="#DejaVuSans-11" transform="translate(63.625 0)"/>
       <use xlink:href="#DejaVuSans-19" transform="translate(95.40625 0)"/>
      </g>
     </g>
    </g>
    <g id="xtick_8">
     <g id="line2d_8">
      <g>
       <use xlink:href="#m2b16071234" x="434.381764" y="202.677656" style="stroke: #000000; stroke-width: 0.8"/>
      </g>
     </g>
     <g id="text_8">
      <!-- 0.7 -->
      <g transform="translate(426.430201 217.275312) scale(0.1 -0.1)">
       <defs>
        <path id="DejaVuSans-1a" d="M 525 4666 
L 3525 4666 
L 3525 4397 
L 1831 0 
L 1172 0 
L 2766 4134 
L 525 4134 
L 525 4666 
z
" transform="scale(0.015625)"/>
       </defs>
       <use xlink:href="#DejaVuSans-13"/>
       <use xlink:href="#DejaVuSans-11" transform="translate(63.625 0)"/>
       <use xlink:href="#DejaVuSans-1a" transform="translate(95.40625 0)"/>
      </g>
     </g>
    </g>
    <g id="xtick_9">
     <g id="line2d_9">
      <g>
       <use xlink:href="#m2b16071234" x="478.70273" y="202.677656" style="stroke: #000000; stroke-width: 0.8"/>
      </g>
     </g>
     <g id="text_9">
      <!-- 0.8 -->
      <g transform="translate(470.751168 217.275312) scale(0.1 -0.1)">
       <defs>
        <path id="DejaVuSans-1b" d="M 2034 2216 
Q 1584 2216 1326 1975 
Q 1069 1734 1069 1313 
Q 1069 891 1326 650 
Q 1584 409 2034 409 
Q 2484 409 2743 651 
Q 3003 894 3003 1313 
Q 3003 1734 2745 1975 
Q 2488 2216 2034 2216 
z
M 1403 2484 
Q 997 2584 770 2862 
Q 544 3141 544 3541 
Q 544 4100 942 4425 
Q 1341 4750 2034 4750 
Q 2731 4750 3128 4425 
Q 3525 4100 3525 3541 
Q 3525 3141 3298 2862 
Q 3072 2584 2669 2484 
Q 3125 2378 3379 2068 
Q 3634 1759 3634 1313 
Q 3634 634 3220 271 
Q 2806 -91 2034 -91 
Q 1263 -91 848 271 
Q 434 634 434 1313 
Q 434 1759 690 2068 
Q 947 2378 1403 2484 
z
M 1172 3481 
Q 1172 3119 1398 2916 
Q 1625 2713 2034 2713 
Q 2441 2713 2670 2916 
Q 2900 3119 2900 3481 
Q 2900 3844 2670 4047 
Q 2441 4250 2034 4250 
Q 1625 4250 1398 4047 
Q 1172 3844 1172 3481 
z
" transform="scale(0.015625)"/>
       </defs>
       <use xlink:href="#DejaVuSans-13"/>
       <use xlink:href="#DejaVuSans-11" transform="translate(63.625 0)"/>
       <use xlink:href="#DejaVuSans-1b" transform="translate(95.40625 0)"/>
      </g>
     </g>
    </g>
    <g id="text_10">
     <!-- cross-validated Spearman |rho|  (higher = better predictor of venetoclax LN_IC50) -->
     <g transform="translate(110.319844 231.319844) scale(0.1 -0.1)">
      <defs>
       <path id="DejaVuSans-46" d="M 3122 3366 
L 3122 2828 
Q 2878 2963 2633 3030 
Q 2388 3097 2138 3097 
Q 1578 3097 1268 2742 
Q 959 2388 959 1747 
Q 959 1106 1268 751 
Q 1578 397 2138 397 
Q 2388 397 2633 464 
Q 2878 531 3122 666 
L 3122 134 
Q 2881 22 2623 -34 
Q 2366 -91 2075 -91 
Q 1284 -91 818 406 
Q 353 903 353 1747 
Q 353 2603 823 3093 
Q 1294 3584 2113 3584 
Q 2378 3584 2631 3529 
Q 2884 3475 3122 3366 
z
" transform="scale(0.015625)"/>
       <path id="DejaVuSans-55" d="M 2631 2963 
Q 2534 3019 2420 3045 
Q 2306 3072 2169 3072 
Q 1681 3072 1420 2755 
Q 1159 2438 1159 1844 
L 1159 0 
L 581 0 
L 581 3500 
L 1159 3500 
L 1159 2956 
Q 1341 3275 1631 3429 
Q 1922 3584 2338 3584 
Q 2397 3584 2469 3576 
Q 2541 3569 2628 3553 
L 2631 2963 
z
" transform="scale(0.015625)"/>
       <path id="DejaVuSans-52" d="M 1959 3097 
Q 1497 3097 1228 2736 
Q 959 2375 959 1747 
Q 959 1119 1226 758 
Q 1494 397 1959 397 
Q 2419 397 2687 759 
Q 2956 1122 2956 1747 
Q 2956 2369 2687 2733 
Q 2419 3097 1959 3097 
z
M 1959 3584 
Q 2709 3584 3137 3096 
Q 3566 2609 3566 1747 
Q 3566 888 3137 398 
Q 2709 -91 1959 -91 
Q 1206 -91 779 398 
Q 353 888 353 1747 
Q 353 2609 779 3096 
Q 1206 3584 1959 3584 
z
" transform="scale(0.015625)"/>
       <path id="DejaVuSans-56" d="M 2834 3397 
L 2834 2853 
Q 2591 2978 2328 3040 
Q 2066 3103 1784 3103 
Q 1356 3103 1142 2972 
Q 928 2841 928 2578 
Q 928 2378 1081 2264 
Q 1234 2150 1697 2047 
L 1894 2003 
Q 2506 1872 2764 1633 
Q 3022 1394 3022 966 
Q 3022 478 2636 193 
Q 2250 -91 1575 -91 
Q 1294 -91 989 -36 
Q 684 19 347 128 
L 347 722 
Q 666 556 975 473 
Q 1284 391 1588 391 
Q 1994 391 2212 530 
Q 2431 669 2431 922 
Q 2431 1156 2273 1281 
Q 2116 1406 1581 1522 
L 1381 1569 
Q 847 1681 609 1914 
Q 372 2147 372 2553 
Q 372 3047 722 3315 
Q 1072 3584 1716 3584 
Q 2034 3584 2315 3537 
Q 2597 3491 2834 3397 
z
" transform="scale(0.015625)"/>
       <path id="DejaVuSans-10" d="M 313 2009 
L 1997 2009 
L 1997 1497 
L 313 1497 
L 313 2009 
z
" transform="scale(0.015625)"/>
       <path id="DejaVuSans-59" d="M 191 3500 
L 800 3500 
L 1894 563 
L 2988 3500 
L 3597 3500 
L 2284 0 
L 1503 0 
L 191 3500 
z
" transform="scale(0.015625)"/>
       <path id="DejaVuSans-44" d="M 2194 1759 
Q 1497 1759 1228 1600 
Q 959 1441 959 1056 
Q 959 750 1161 570 
Q 1363 391 1709 391 
Q 2188 391 2477 730 
Q 2766 1069 2766 1631 
L 2766 1759 
L 2194 1759 
z
M 3341 1997 
L 3341 0 
L 2766 0 
L 2766 531 
Q 2569 213 2275 61 
Q 1981 -91 1556 -91 
Q 1019 -91 701 211 
Q 384 513 384 1019 
Q 384 1609 779 1909 
Q 1175 2209 1959 2209 
L 2766 2209 
L 2766 2266 
Q 2766 2663 2505 2880 
Q 2244 3097 1772 3097 
Q 1472 3097 1187 3025 
Q 903 2953 641 2809 
L 641 3341 
Q 956 3463 1253 3523 
Q 1550 3584 1831 3584 
Q 2591 3584 2966 3190 
Q 3341 2797 3341 1997 
z
" transform="scale(0.015625)"/>
       <path id="DejaVuSans-4f" d="M 603 4863 
L 1178 4863 
L 1178 0 
L 603 0 
L 603 4863 
z
" transform="scale(0.015625)"/>
       <path id="DejaVuSans-4c" d="M 603 3500 
L 1178 3500 
L 1178 0 
L 603 0 
L 603 3500 
z
M 603 4863 
L 1178 4863 
L 1178 4134 
L 603 4134 
L 603 4863 
z
" transform="scale(0.015625)"/>
       <path id="DejaVuSans-47" d="M 2906 2969 
L 2906 4863 
L 3481 4863 
L 3481 0 
L 2906 0 
L 2906 525 
Q 2725 213 2448 61 
Q 2172 -91 1784 -91 
Q 1150 -91 751 415 
Q 353 922 353 1747 
Q 353 2572 751 3078 
Q 1150 3584 1784 3584 
Q 2172 3584 2448 3432 
Q 2725 3281 2906 2969 
z
M 947 1747 
Q 947 1113 1208 752 
Q 1469 391 1925 391 
Q 2381 391 2643 752 
Q 2906 1113 2906 1747 
Q 2906 2381 2643 2742 
Q 2381 3103 1925 3103 
Q 1469 3103 1208 2742 
Q 947 2381 947 1747 
z
" transform="scale(0.015625)"/>
       <path id="DejaVuSans-57" d="M 1172 4494 
L 1172 3500 
L 2356 3500 
L 2356 3053 
L 1172 3053 
L 1172 1153 
Q 1172 725 1289 603 
Q 1406 481 1766 481 
L 2356 481 
L 2356 0 
L 1766 0 
Q 1100 0 847 248 
Q 594 497 594 1153 
L 594 3053 
L 172 3053 
L 172 3500 
L 594 3500 
L 594 4494 
L 1172 4494 
z
" transform="scale(0.015625)"/>
       <path id="DejaVuSans-48" d="M 3597 1894 
L 3597 1613 
L 953 1613 
Q 991 1019 1311 708 
Q 1631 397 2203 397 
Q 2534 397 2845 478 
Q 3156 559 3463 722 
L 3463 178 
Q 3153 47 2828 -22 
Q 2503 -91 2169 -91 
Q 1331 -91 842 396 
Q 353 884 353 1716 
Q 353 2575 817 3079 
Q 1281 3584 2069 3584 
Q 2775 3584 3186 3129 
Q 3597 2675 3597 1894 
z
M 3022 2063 
Q 3016 2534 2758 2815 
Q 2500 3097 2075 3097 
Q 1594 3097 1305 2825 
Q 1016 2553 972 2059 
L 3022 2063 
z
" transform="scale(0.015625)"/>
       <path id="DejaVuSans-3" transform="scale(0.015625)"/>
       <path id="DejaVuSans-36" d="M 3425 4513 
L 3425 3897 
Q 3066 4069 2747 4153 
Q 2428 4238 2131 4238 
Q 1616 4238 1336 4038 
Q 1056 3838 1056 3469 
Q 1056 3159 1242 3001 
Q 1428 2844 1947 2747 
L 2328 2669 
Q 3034 2534 3370 2195 
Q 3706 1856 3706 1288 
Q 3706 609 3251 259 
Q 2797 -91 1919 -91 
Q 1588 -91 1214 -16 
Q 841 59 441 206 
L 441 856 
Q 825 641 1194 531 
Q 1563 422 1919 422 
Q 2459 422 2753 634 
Q 3047 847 3047 1241 
Q 3047 1584 2836 1778 
Q 2625 1972 2144 2069 
L 1759 2144 
Q 1053 2284 737 2584 
Q 422 2884 422 3419 
Q 422 4038 858 4394 
Q 1294 4750 2059 4750 
Q 2388 4750 2728 4690 
Q 3069 4631 3425 4513 
z
" transform="scale(0.015625)"/>
       <path id="DejaVuSans-53" d="M 1159 525 
L 1159 -1331 
L 581 -1331 
L 581 3500 
L 1159 3500 
L 1159 2969 
Q 1341 3281 1617 3432 
Q 1894 3584 2278 3584 
Q 2916 3584 3314 3078 
Q 3713 2572 3713 1747 
Q 3713 922 3314 415 
Q 2916 -91 2278 -91 
Q 1894 -91 1617 61 
Q 1341 213 1159 525 
z
M 3116 1747 
Q 3116 2381 2855 2742 
Q 2594 3103 2138 3103 
Q 1681 3103 1420 2742 
Q 1159 2381 1159 1747 
Q 1159 1113 1420 752 
Q 1681 391 2138 391 
Q 2594 391 2855 752 
Q 3116 1113 3116 1747 
z
" transform="scale(0.015625)"/>
       <path id="DejaVuSans-50" d="M 3328 2828 
Q 3544 3216 3844 3400 
Q 4144 3584 4550 3584 
Q 5097 3584 5394 3201 
Q 5691 2819 5691 2113 
L 5691 0 
L 5113 0 
L 5113 2094 
Q 5113 2597 4934 2840 
Q 4756 3084 4391 3084 
Q 3944 3084 3684 2787 
Q 3425 2491 3425 1978 
L 3425 0 
L 2847 0 
L 2847 2094 
Q 2847 2600 2669 2842 
Q 2491 3084 2119 3084 
Q 1678 3084 1418 2786 
Q 1159 2488 1159 1978 
L 1159 0 
L 581 0 
L 581 3500 
L 1159 3500 
L 1159 2956 
Q 1356 3278 1631 3431 
Q 1906 3584 2284 3584 
Q 2666 3584 2933 3390 
Q 3200 3197 3328 2828 
z
" transform="scale(0.015625)"/>
       <path id="DejaVuSans-51" d="M 3513 2113 
L 3513 0 
L 2938 0 
L 2938 2094 
Q 2938 2591 2744 2837 
Q 2550 3084 2163 3084 
Q 1697 3084 1428 2787 
Q 1159 2491 1159 1978 
L 1159 0 
L 581 0 
L 581 3500 
L 1159 3500 
L 1159 2956 
Q 1366 3272 1645 3428 
Q 1925 3584 2291 3584 
Q 2894 3584 3203 3211 
Q 3513 2838 3513 2113 
z
" transform="scale(0.015625)"/>
       <path id="DejaVuSans-5f" d="M 1344 4891 
L 1344 -1509 
L 813 -1509 
L 813 4891 
L 1344 4891 
z
" transform="scale(0.015625)"/>
       <path id="DejaVuSans-4b" d="M 3513 2113 
L 3513 0 
L 2938 0 
L 2938 2094 
Q 2938 2591 2744 2837 
Q 2550 3084 2163 3084 
Q 1697 3084 1428 2787 
Q 1159 2491 1159 1978 
L 1159 0 
L 581 0 
L 581 4863 
L 1159 4863 
L 1159 2956 
Q 1366 3272 1645 3428 
Q 1925 3584 2291 3584 
Q 2894 3584 3203 3211 
Q 3513 2838 3513 2113 
z
" transform="scale(0.015625)"/>
       <path id="DejaVuSans-b" d="M 1984 4856 
Q 1566 4138 1362 3434 
Q 1159 2731 1159 2009 
Q 1159 1288 1364 580 
Q 1569 -128 1984 -844 
L 1484 -844 
Q 1016 -109 783 600 
Q 550 1309 550 2009 
Q 550 2706 781 3412 
Q 1013 4119 1484 4856 
L 1984 4856 
z
" transform="scale(0.015625)"/>
       <path id="DejaVuSans-4a" d="M 2906 1791 
Q 2906 2416 2648 2759 
Q 2391 3103 1925 3103 
Q 1463 3103 1205 2759 
Q 947 2416 947 1791 
Q 947 1169 1205 825 
Q 1463 481 1925 481 
Q 2391 481 2648 825 
Q 2906 1169 2906 1791 
z
M 3481 434 
Q 3481 -459 3084 -895 
Q 2688 -1331 1869 -1331 
Q 1566 -1331 1297 -1286 
Q 1028 -1241 775 -1147 
L 775 -588 
Q 1028 -725 1275 -790 
Q 1522 -856 1778 -856 
Q 2344 -856 2625 -561 
Q 2906 -266 2906 331 
L 2906 616 
Q 2728 306 2450 153 
Q 2172 0 1784 0 
Q 1141 0 747 490 
Q 353 981 353 1791 
Q 353 2603 747 3093 
Q 1141 3584 1784 3584 
Q 2172 3584 2450 3431 
Q 2728 3278 2906 2969 
L 2906 3500 
L 3481 3500 
L 3481 434 
z
" transform="scale(0.015625)"/>
       <path id="DejaVuSans-20" d="M 678 2906 
L 4684 2906 
L 4684 2381 
L 678 2381 
L 678 2906 
z
M 678 1631 
L 4684 1631 
L 4684 1100 
L 678 1100 
L 678 1631 
z
" transform="scale(0.015625)"/>
       <path id="DejaVuSans-45" d="M 3116 1747 
Q 3116 2381 2855 2742 
Q 2594 3103 2138 3103 
Q 1681 3103 1420 2742 
Q 1159 2381 1159 1747 
Q 1159 1113 1420 752 
Q 1681 391 2138 391 
Q 2594 391 2855 752 
Q 3116 1113 3116 1747 
z
M 1159 2969 
Q 1341 3281 1617 3432 
Q 1894 3584 2278 3584 
Q 2916 3584 3314 3078 
Q 3713 2572 3713 1747 
Q 3713 922 3314 415 
Q 2916 -91 2278 -91 
Q 1894 -91 1617 61 
Q 1341 213 1159 525 
L 1159 0 
L 581 0 
L 581 4863 
L 1159 4863 
L 1159 2969 
z
" transform="scale(0.015625)"/>
       <path id="DejaVuSans-49" d="M 2375 4863 
L 2375 4384 
L 1825 4384 
Q 1516 4384 1395 4259 
Q 1275 4134 1275 3809 
L 1275 3500 
L 2222 3500 
L 2222 3053 
L 1275 3053 
L 1275 0 
L 697 0 
L 697 3053 
L 147 3053 
L 147 3500 
L 697 3500 
L 697 3744 
Q 697 4328 969 4595 
Q 1241 4863 1831 4863 
L 2375 4863 
z
" transform="scale(0.015625)"/>
       <path id="DejaVuSans-5b" d="M 3513 3500 
L 2247 1797 
L 3578 0 
L 2900 0 
L 1881 1375 
L 863 0 
L 184 0 
L 1544 1831 
L 300 3500 
L 978 3500 
L 1906 2253 
L 2834 3500 
L 3513 3500 
z
" transform="scale(0.015625)"/>
       <path id="DejaVuSans-2f" d="M 628 4666 
L 1259 4666 
L 1259 531 
L 3531 531 
L 3531 0 
L 628 0 
L 628 4666 
z
" transform="scale(0.015625)"/>
       <path id="DejaVuSans-31" d="M 628 4666 
L 1478 4666 
L 3547 763 
L 3547 4666 
L 4159 4666 
L 4159 0 
L 3309 0 
L 1241 3903 
L 1241 0 
L 628 0 
L 628 4666 
z
" transform="scale(0.015625)"/>
       <path id="DejaVuSans-42" d="M 3263 -1063 
L 3263 -1509 
L -63 -1509 
L -63 -1063 
L 3263 -1063 
z
" transform="scale(0.015625)"/>
       <path id="DejaVuSans-2c" d="M 628 4666 
L 1259 4666 
L 1259 0 
L 628 0 
L 628 4666 
z
" transform="scale(0.015625)"/>
       <path id="DejaVuSans-26" d="M 4122 4306 
L 4122 3641 
Q 3803 3938 3442 4084 
Q 3081 4231 2675 4231 
Q 1875 4231 1450 3742 
Q 1025 3253 1025 2328 
Q 1025 1406 1450 917 
Q 1875 428 2675 428 
Q 3081 428 3442 575 
Q 3803 722 4122 1019 
L 4122 359 
Q 3791 134 3420 21 
Q 3050 -91 2638 -91 
Q 1578 -91 968 557 
Q 359 1206 359 2328 
Q 359 3453 968 4101 
Q 1578 4750 2638 4750 
Q 3056 4750 3426 4639 
Q 3797 4528 4122 4306 
z
" transform="scale(0.015625)"/>
       <path id="DejaVuSans-c" d="M 513 4856 
L 1013 4856 
Q 1481 4119 1714 3412 
Q 1947 2706 1947 2009 
Q 1947 1309 1714 600 
Q 1481 -109 1013 -844 
L 513 -844 
Q 928 -128 1133 580 
Q 1338 1288 1338 2009 
Q 1338 2731 1133 3434 
Q 928 4138 513 4856 
z
" transform="scale(0.015625)"/>
      </defs>
      <use xlink:href="#DejaVuSans-46"/>
      <use xlink:href="#DejaVuSans-55" transform="translate(54.984375 0)"/>
      <use xlink:href="#DejaVuSans-52" transform="translate(93.890625 0)"/>
      <use xlink:href="#DejaVuSans-56" transform="translate(155.078125 0)"/>
      <use xlink:href="#DejaVuSans-56" transform="translate(207.171875 0)"/>
      <use xlink:href="#DejaVuSans-10" transform="translate(259.265625 0)"/>
      <use xlink:href="#DejaVuSans-59" transform="translate(292.65625 0)"/>
      <use xlink:href="#DejaVuSans-44" transform="translate(351.84375 0)"/>
      <use xlink:href="#DejaVuSans-4f" transform="translate(413.125 0)"/>
      <use xlink:href="#DejaVuSans-4c" transform="translate(440.90625 0)"/>
      <use xlink:href="#DejaVuSans-47" transform="translate(468.6875 0)"/>
      <use xlink:href="#DejaVuSans-44" transform="translate(532.171875 0)"/>
      <use xlink:href="#DejaVuSans-57" transform="translate(593.453125 0)"/>
      <use xlink:href="#DejaVuSans-48" transform="translate(632.65625 0)"/>
      <use xlink:href="#DejaVuSans-47" transform="translate(694.1875 0)"/>
      <use xlink:href="#DejaVuSans-3" transform="translate(757.671875 0)"/>
      <use xlink:href="#DejaVuSans-36" transform="translate(789.453125 0)"/>
      <use xlink:href="#DejaVuSans-53" transform="translate(852.9375 0)"/>
      <use xlink:href="#DejaVuSans-48" transform="translate(916.421875 0)"/>
      <use xlink:href="#DejaVuSans-44" transform="translate(977.953125 0)"/>
      <use xlink:href="#DejaVuSans-55" transform="translate(1039.234375 0)"/>
      <use xlink:href="#DejaVuSans-50" transform="translate(1078.59375 0)"/>
      <use xlink:href="#DejaVuSans-44" transform="translate(1176 0)"/>
      <use xlink:href="#DejaVuSans-51" transform="translate(1237.28125 0)"/>
      <use xlink:href="#DejaVuSans-3" transform="translate(1300.65625 0)"/>
      <use xlink:href="#DejaVuSans-5f" transform="translate(1332.4375 0)"/>
      <use xlink:href="#DejaVuSans-55" transform="translate(1366.125 0)"/>
      <use xlink:href="#DejaVuSans-4b" transform="translate(1405.484375 0)"/>
      <use xlink:href="#DejaVuSans-52" transform="translate(1468.859375 0)"/>
      <use xlink:href="#DejaVuSans-5f" transform="translate(1530.046875 0)"/>
      <use xlink:href="#DejaVuSans-3" transform="translate(1563.734375 0)"/>
      <use xlink:href="#DejaVuSans-3" transform="translate(1595.515625 0)"/>
      <use xlink:href="#DejaVuSans-b" transform="translate(1627.296875 0)"/>
      <use xlink:href="#DejaVuSans-4b" transform="translate(1666.3125 0)"/>
      <use xlink:href="#DejaVuSans-4c" transform="translate(1729.6875 0)"/>
      <use xlink:href="#DejaVuSans-4a" transform="translate(1757.46875 0)"/>
      <use xlink:href="#DejaVuSans-4b" transform="translate(1820.953125 0)"/>
      <use xlink:href="#DejaVuSans-48" transform="translate(1884.328125 0)"/>
      <use xlink:href="#DejaVuSans-55" transform="translate(1945.859375 0)"/>
      <use xlink:href="#DejaVuSans-3" transform="translate(1986.96875 0)"/>
      <use xlink:href="#DejaVuSans-20" transform="translate(2018.75 0)"/>
      <use xlink:href="#DejaVuSans-3" transform="translate(2102.546875 0)"/>
      <use xlink:href="#DejaVuSans-45" transform="translate(2134.328125 0)"/>
      <use xlink:href="#DejaVuSans-48" transform="translate(2197.8125 0)"/>
      <use xlink:href="#DejaVuSans-57" transform="translate(2259.34375 0)"/>
      <use xlink:href="#DejaVuSans-57" transform="translate(2298.546875 0)"/>
      <use xlink:href="#DejaVuSans-48" transform="translate(2337.75 0)"/>
      <use xlink:href="#DejaVuSans-55" transform="translate(2399.28125 0)"/>
      <use xlink:href="#DejaVuSans-3" transform="translate(2440.390625 0)"/>
      <use xlink:href="#DejaVuSans-53" transform="translate(2472.171875 0)"/>
      <use xlink:href="#DejaVuSans-55" transform="translate(2535.65625 0)"/>
      <use xlink:href="#DejaVuSans-48" transform="translate(2574.5625 0)"/>
      <use xlink:href="#DejaVuSans-47" transform="translate(2636.09375 0)"/>
      <use xlink:href="#DejaVuSans-4c" transform="translate(2699.578125 0)"/>
      <use xlink:href="#DejaVuSans-46" transform="translate(2727.359375 0)"/>
      <use xlink:href="#DejaVuSans-57" transform="translate(2782.34375 0)"/>
      <use xlink:href="#DejaVuSans-52" transform="translate(2821.546875 0)"/>
      <use xlink:href="#DejaVuSans-55" transform="translate(2882.734375 0)"/>
      <use xlink:href="#DejaVuSans-3" transform="translate(2923.84375 0)"/>
      <use xlink:href="#DejaVuSans-52" transform="translate(2955.625 0)"/>
      <use xlink:href="#DejaVuSans-49" transform="translate(3016.8125 0)"/>
      <use xlink:href="#DejaVuSans-3" transform="translate(3052.015625 0)"/>
      <use xlink:href="#DejaVuSans-59" transform="translate(3083.796875 0)"/>
      <use xlink:href="#DejaVuSans-48" transform="translate(3142.984375 0)"/>
      <use xlink:href="#DejaVuSans-51" transform="translate(3204.515625 0)"/>
      <use xlink:href="#DejaVuSans-48" transform="translate(3267.890625 0)"/>
      <use xlink:href="#DejaVuSans-57" transform="translate(3329.421875 0)"/>
      <use xlink:href="#DejaVuSans-52" transform="translate(3368.625 0)"/>
      <use xlink:href="#DejaVuSans-46" transform="translate(3429.8125 0)"/>
      <use xlink:href="#DejaVuSans-4f" transform="translate(3484.796875 0)"/>
      <use xlink:href="#DejaVuSans-44" transform="translate(3512.578125 0)"/>
      <use xlink:href="#DejaVuSans-5b" transform="translate(3573.859375 0)"/>
      <use xlink:href="#DejaVuSans-3" transform="translate(3633.046875 0)"/>
      <use xlink:href="#DejaVuSans-2f" transform="translate(3664.828125 0)"/>
      <use xlink:href="#DejaVuSans-31" transform="translate(3720.546875 0)"/>
      <use xlink:href="#DejaVuSans-42" transform="translate(3795.359375 0)"/>
      <use xlink:href="#DejaVuSans-2c" transform="translate(3845.359375 0)"/>
      <use xlink:href="#DejaVuSans-26" transform="translate(3874.859375 0)"/>
      <use xlink:href="#DejaVuSans-18" transform="translate(3944.6875 0)"/>
      <use xlink:href="#DejaVuSans-13" transform="translate(4008.3125 0)"/>
      <use xlink:href="#DejaVuSans-c" transform="translate(4071.9375 0)"/>
     </g>
    </g>
   </g>
   <g id="matplotlib.axis_2">
    <g id="ytick_1">
     <g id="line2d_10">
      <defs>
       <path id="m0cd40fce0a" d="M 0 0 
L -3.5 0 
" style="stroke: #000000; stroke-width: 0.8"/>
      </defs>
      <g>
       <use xlink:href="#m0cd40fce0a" x="124.135" y="44.951037" style="stroke: #000000; stroke-width: 0.8"/>
      </g>
     </g>
     <g id="text_11">
      <!-- composite -->
      <g transform="translate(65.249063 48.750256) scale(0.1 -0.1)">
       <use xlink:href="#DejaVuSans-46"/>
       <use xlink:href="#DejaVuSans-52" transform="translate(54.984375 0)"/>
       <use xlink:href="#DejaVuSans-50" transform="translate(116.171875 0)"/>
       <use xlink:href="#DejaVuSans-53" transform="translate(213.578125 0)"/>
       <use xlink:href="#DejaVuSans-52" transform="translate(277.0625 0)"/>
       <use xlink:href="#DejaVuSans-56" transform="translate(338.25 0)"/>
       <use xlink:href="#DejaVuSans-4c" transform="translate(390.34375 0)"/>
       <use xlink:href="#DejaVuSans-57" transform="translate(418.125 0)"/>
       <use xlink:href="#DejaVuSans-48" transform="translate(457.328125 0)"/>
      </g>
     </g>
    </g>
    <g id="ytick_2">
     <g id="line2d_11">
      <g>
       <use xlink:href="#m0cd40fce0a" x="124.135" y="79.684933" style="stroke: #000000; stroke-width: 0.8"/>
      </g>
     </g>
     <g id="text_12">
      <!-- BCL2_alone -->
      <g transform="translate(59.01625 83.484152) scale(0.1 -0.1)">
       <defs>
        <path id="DejaVuSans-25" d="M 1259 2228 
L 1259 519 
L 2272 519 
Q 2781 519 3026 730 
Q 3272 941 3272 1375 
Q 3272 1813 3026 2020 
Q 2781 2228 2272 2228 
L 1259 2228 
z
M 1259 4147 
L 1259 2741 
L 2194 2741 
Q 2656 2741 2882 2914 
Q 3109 3088 3109 3444 
Q 3109 3797 2882 3972 
Q 2656 4147 2194 4147 
L 1259 4147 
z
M 628 4666 
L 2241 4666 
Q 2963 4666 3353 4366 
Q 3744 4066 3744 3513 
Q 3744 3084 3544 2831 
Q 3344 2578 2956 2516 
Q 3422 2416 3680 2098 
Q 3938 1781 3938 1306 
Q 3938 681 3513 340 
Q 3088 0 2303 0 
L 628 0 
L 628 4666 
z
" transform="scale(0.015625)"/>
       </defs>
       <use xlink:href="#DejaVuSans-25"/>
       <use xlink:href="#DejaVuSans-26" transform="translate(66.859375 0)"/>
       <use xlink:href="#DejaVuSans-2f" transform="translate(136.6875 0)"/>
       <use xlink:href="#DejaVuSans-15" transform="translate(192.40625 0)"/>
       <use xlink:href="#DejaVuSans-42" transform="translate(256.03125 0)"/>
       <use xlink:href="#DejaVuSans-44" transform="translate(306.03125 0)"/>
       <use xlink:href="#DejaVuSans-4f" transform="translate(367.3125 0)"/>
       <use xlink:href="#DejaVuSans-52" transform="translate(395.09375 0)"/>
       <use xlink:href="#DejaVuSans-51" transform="translate(456.28125 0)"/>
       <use xlink:href="#DejaVuSans-48" transform="translate(519.65625 0)"/>
      </g>
     </g>
    </g>
    <g id="ytick_3">
     <g id="line2d_12">
      <g>
       <use xlink:href="#m0cd40fce0a" x="124.135" y="114.418828" style="stroke: #000000; stroke-width: 0.8"/>
      </g>
     </g>
     <g id="text_13">
      <!-- BCL2_minus_MCL1 -->
      <g transform="translate(23.583438 118.218047) scale(0.1 -0.1)">
       <defs>
        <path id="DejaVuSans-58" d="M 544 1381 
L 544 3500 
L 1119 3500 
L 1119 1403 
Q 1119 906 1312 657 
Q 1506 409 1894 409 
Q 2359 409 2629 706 
Q 2900 1003 2900 1516 
L 2900 3500 
L 3475 3500 
L 3475 0 
L 2900 0 
L 2900 538 
Q 2691 219 2414 64 
Q 2138 -91 1772 -91 
Q 1169 -91 856 284 
Q 544 659 544 1381 
z
M 1991 3584 
L 1991 3584 
z
" transform="scale(0.015625)"/>
        <path id="DejaVuSans-30" d="M 628 4666 
L 1569 4666 
L 2759 1491 
L 3956 4666 
L 4897 4666 
L 4897 0 
L 4281 0 
L 4281 4097 
L 3078 897 
L 2444 897 
L 1241 4097 
L 1241 0 
L 628 0 
L 628 4666 
z
" transform="scale(0.015625)"/>
       </defs>
       <use xlink:href="#DejaVuSans-25"/>
       <use xlink:href="#DejaVuSans-26" transform="translate(66.859375 0)"/>
       <use xlink:href="#DejaVuSans-2f" transform="translate(136.6875 0)"/>
       <use xlink:href="#DejaVuSans-15" transform="translate(192.40625 0)"/>
       <use xlink:href="#DejaVuSans-42" transform="translate(256.03125 0)"/>
       <use xlink:href="#DejaVuSans-50" transform="translate(306.03125 0)"/>
       <use xlink:href="#DejaVuSans-4c" transform="translate(403.4375 0)"/>
       <use xlink:href="#DejaVuSans-51" transform="translate(431.21875 0)"/>
       <use xlink:href="#DejaVuSans-58" transform="translate(494.59375 0)"/>
       <use xlink:href="#DejaVuSans-56" transform="translate(557.96875 0)"/>
       <use xlink:href="#DejaVuSans-42" transform="translate(610.0625 0)"/>
       <use xlink:href="#DejaVuSans-30" transform="translate(660.0625 0)"/>
       <use xlink:href="#DejaVuSans-26" transform="translate(746.34375 0)"/>
       <use xlink:href="#DejaVuSans-2f" transform="translate(816.171875 0)"/>
       <use xlink:href="#DejaVuSans-14" transform="translate(871.890625 0)"/>
      </g>
     </g>
    </g>
    <g id="ytick_4">
     <g id="line2d_13">
      <g>
       <use xlink:href="#m0cd40fce0a" x="124.135" y="149.152723" style="stroke: #000000; stroke-width: 0.8"/>
      </g>
     </g>
     <g id="text_14">
      <!-- MCL1_over_BCL2L1 -->
      <g transform="translate(19.750625 152.951552) scale(0.1 -0.1)">
       <use xlink:href="#DejaVuSans-30"/>
       <use xlink:href="#DejaVuSans-26" transform="translate(86.28125 0)"/>
       <use xlink:href="#DejaVuSans-2f" transform="translate(156.109375 0)"/>
       <use xlink:href="#DejaVuSans-14" transform="translate(211.828125 0)"/>
       <use xlink:href="#DejaVuSans-42" transform="translate(275.453125 0)"/>
       <use xlink:href="#DejaVuSans-52" transform="translate(325.453125 0)"/>
       <use xlink:href="#DejaVuSans-59" transform="translate(386.640625 0)"/>
       <use xlink:href="#DejaVuSans-48" transform="translate(445.828125 0)"/>
       <use xlink:href="#DejaVuSans-55" transform="translate(507.359375 0)"/>
       <use xlink:href="#DejaVuSans-42" transform="translate(548.46875 0)"/>
       <use xlink:href="#DejaVuSans-25" transform="translate(598.46875 0)"/>
       <use xlink:href="#DejaVuSans-26" transform="translate(665.328125 0)"/>
       <use xlink:href="#DejaVuSans-2f" transform="translate(735.15625 0)"/>
       <use xlink:href="#DejaVuSans-15" transform="translate(790.875 0)"/>
       <use xlink:href="#DejaVuSans-2f" transform="translate(854.5 0)"/>
       <use xlink:href="#DejaVuSans-14" transform="translate(910.21875 0)"/>
      </g>
     </g>
    </g>
    <g id="ytick_5">
     <g id="line2d_14">
      <g>
       <use xlink:href="#m0cd40fce0a" x="124.135" y="183.886619" style="stroke: #000000; stroke-width: 0.8"/>
      </g>
     </g>
     <g id="text_15">
      <!-- monocytic_signature -->
      <g transform="translate(13.102187 187.685838) scale(0.1 -0.1)">
       <defs>
        <path id="DejaVuSans-5c" d="M 2059 -325 
Q 1816 -950 1584 -1140 
Q 1353 -1331 966 -1331 
L 506 -1331 
L 506 -850 
L 844 -850 
Q 1081 -850 1212 -737 
Q 1344 -625 1503 -206 
L 1606 56 
L 191 3500 
L 800 3500 
L 1894 763 
L 2988 3500 
L 3597 3500 
L 2059 -325 
z
" transform="scale(0.015625)"/>
       </defs>
       <use xlink:href="#DejaVuSans-50"/>
       <use xlink:href="#DejaVuSans-52" transform="translate(97.40625 0)"/>
       <use xlink:href="#DejaVuSans-51" transform="translate(158.59375 0)"/>
       <use xlink:href="#DejaVuSans-52" transform="translate(221.96875 0)"/>
       <use xlink:href="#DejaVuSans-46" transform="translate(283.15625 0)"/>
       <use xlink:href="#DejaVuSans-5c" transform="translate(338.140625 0)"/>
       <use xlink:href="#DejaVuSans-57" transform="translate(397.328125 0)"/>
       <use xlink:href="#DejaVuSans-4c" transform="translate(436.53125 0)"/>
       <use xlink:href="#DejaVuSans-46" transform="translate(464.3125 0)"/>
       <use xlink:href="#DejaVuSans-42" transform="translate(519.296875 0)"/>
       <use xlink:href="#DejaVuSans-56" transform="translate(569.296875 0)"/>
       <use xlink:href="#DejaVuSans-4c" transform="translate(621.390625 0)"/>
       <use xlink:href="#DejaVuSans-4a" transform="translate(649.171875 0)"/>
       <use xlink:href="#DejaVuSans-51" transform="translate(712.65625 0)"/>
       <use xlink:href="#DejaVuSans-44" transform="translate(776.03125 0)"/>
       <use xlink:href="#DejaVuSans-57" transform="translate(837.3125 0)"/>
       <use xlink:href="#DejaVuSans-58" transform="translate(876.515625 0)"/>
       <use xlink:href="#DejaVuSans-55" transform="translate(939.890625 0)"/>
       <use xlink:href="#DejaVuSans-48" transform="translate(978.796875 0)"/>
      </g>
     </g>
    </g>
   </g>
   <g id="LineCollection_1">
    <path d="M 229.17569 44.951037 
L 449.894102 44.951037 
" clip-path="url(#p3ada59a2c3)" style="fill: none; stroke: #000000; stroke-width: 1.5"/>
    <path d="M 183.525095 79.684933 
L 434.824973 79.684933 
" clip-path="url(#p3ada59a2c3)" style="fill: none; stroke: #000000; stroke-width: 1.5"/>
    <path d="M 296.100349 114.418828 
L 489.339762 114.418828 
" clip-path="url(#p3ada59a2c3)" style="fill: none; stroke: #000000; stroke-width: 1.5"/>
    <path d="M 126.351048 149.152723 
L 307.6238 149.152723 
" clip-path="url(#p3ada59a2c3)" style="fill: none; stroke: #000000; stroke-width: 1.5"/>
    <path d="M 129.010306 183.886619 
L 326.681816 183.886619 
" clip-path="url(#p3ada59a2c3)" style="fill: none; stroke: #000000; stroke-width: 1.5"/>
   </g>
   <g id="line2d_15">
    <defs>
     <path id="me7f93d9182" d="M 0 3 
L 0 -3 
" style="stroke: #000000"/>
    </defs>
    <g clip-path="url(#p3ada59a2c3)">
     <use xlink:href="#me7f93d9182" x="229.17569" y="44.951037" style="fill: #1f77b4; stroke: #000000"/>
     <use xlink:href="#me7f93d9182" x="183.525095" y="79.684933" style="fill: #1f77b4; stroke: #000000"/>
     <use xlink:href="#me7f93d9182" x="296.100349" y="114.418828" style="fill: #1f77b4; stroke: #000000"/>
     <use xlink:href="#me7f93d9182" x="126.351048" y="149.152723" style="fill: #1f77b4; stroke: #000000"/>
     <use xlink:href="#me7f93d9182" x="129.010306" y="183.886619" style="fill: #1f77b4; stroke: #000000"/>
    </g>
   </g>
   <g id="line2d_16">
    <g clip-path="url(#p3ada59a2c3)">
     <use xlink:href="#me7f93d9182" x="449.894102" y="44.951037" style="fill: #1f77b4; stroke: #000000"/>
     <use xlink:href="#me7f93d9182" x="434.824973" y="79.684933" style="fill: #1f77b4; stroke: #000000"/>
     <use xlink:href="#me7f93d9182" x="489.339762" y="114.418828" style="fill: #1f77b4; stroke: #000000"/>
     <use xlink:href="#me7f93d9182" x="307.6238" y="149.152723" style="fill: #1f77b4; stroke: #000000"/>
     <use xlink:href="#me7f93d9182" x="326.681816" y="183.886619" style="fill: #1f77b4; stroke: #000000"/>
    </g>
   </g>
   <g id="line2d_17">
    <path d="M 209.674465 202.677656 
L 209.674465 26.16 
" clip-path="url(#p3ada59a2c3)" style="fill: none; stroke-dasharray: 4.81,2.08; stroke-dashoffset: 0; stroke: #d55e00; stroke-width: 1.3"/>
   </g>
   <g id="patch_8">
    <path d="M 124.135 202.677656 
L 124.135 26.16 
" style="fill: none; stroke: #000000; stroke-width: 0.8; stroke-linejoin: miter; stroke-linecap: square"/>
   </g>
   <g id="patch_9">
    <path d="M 507.6 202.677656 
L 507.6 26.16 
" style="fill: none; stroke: #000000; stroke-width: 0.8; stroke-linejoin: miter; stroke-linecap: square"/>
   </g>
   <g id="patch_10">
    <path d="M 124.135 202.677656 
L 507.6 202.677656 
" style="fill: none; stroke: #000000; stroke-width: 0.8; stroke-linejoin: miter; stroke-linecap: square"/>
   </g>
   <g id="patch_11">
    <path d="M 124.135 26.16 
L 507.6 26.16 
" style="fill: none; stroke: #000000; stroke-width: 0.8; stroke-linejoin: miter; stroke-linecap: square"/>
   </g>
   <g id="text_16">
    <!-- Baseline battery — venetoclax, DepMap heme x GDSC2 (n=113) -->
    <g transform="translate(120.995938 20.16) scale(0.12 -0.12)">
     <defs>
      <path id="DejaVuSans-af6" d="M 313 1978 
L 6088 1978 
L 6088 1528 
L 313 1528 
L 313 1978 
z
" transform="scale(0.015625)"/>
      <path id="DejaVuSans-f" d="M 750 794 
L 1409 794 
L 1409 256 
L 897 -744 
L 494 -744 
L 750 256 
L 750 794 
z
" transform="scale(0.015625)"/>
      <path id="DejaVuSans-27" d="M 1259 4147 
L 1259 519 
L 2022 519 
Q 2988 519 3436 956 
Q 3884 1394 3884 2338 
Q 3884 3275 3436 3711 
Q 2988 4147 2022 4147 
L 1259 4147 
z
M 628 4666 
L 1925 4666 
Q 3281 4666 3915 4102 
Q 4550 3538 4550 2338 
Q 4550 1131 3912 565 
Q 3275 0 1925 0 
L 628 0 
L 628 4666 
z
" transform="scale(0.015625)"/>
      <path id="DejaVuSans-2a" d="M 3809 666 
L 3809 1919 
L 2778 1919 
L 2778 2438 
L 4434 2438 
L 4434 434 
Q 4069 175 3628 42 
Q 3188 -91 2688 -91 
Q 1594 -91 976 548 
Q 359 1188 359 2328 
Q 359 3472 976 4111 
Q 1594 4750 2688 4750 
Q 3144 4750 3555 4637 
Q 3966 4525 4313 4306 
L 4313 3634 
Q 3963 3931 3569 4081 
Q 3175 4231 2741 4231 
Q 1884 4231 1454 3753 
Q 1025 3275 1025 2328 
Q 1025 1384 1454 906 
Q 1884 428 2741 428 
Q 3075 428 3337 486 
Q 3600 544 3809 666 
z
" transform="scale(0.015625)"/>
     </defs>
     <use xlink:href="#DejaVuSans-25"/>
     <use xlink:href="#DejaVuSans-44" transform="translate(68.609375 0)"/>
     <use xlink:href="#DejaVuSans-56" transform="translate(129.890625 0)"/>
     <use xlink:href="#DejaVuSans-48" transform="translate(181.984375 0)"/>
     <use xlink:href="#DejaVuSans-4f" transform="translate(243.515625 0)"/>
     <use xlink:href="#DejaVuSans-4c" transform="translate(271.296875 0)"/>
     <use xlink:href="#DejaVuSans-51" transform="translate(299.078125 0)"/>
     <use xlink:href="#DejaVuSans-48" transform="translate(362.453125 0)"/>
     <use xlink:href="#DejaVuSans-3" transform="translate(423.984375 0)"/>
     <use xlink:href="#DejaVuSans-45" transform="translate(455.765625 0)"/>
     <use xlink:href="#DejaVuSans-44" transform="translate(519.25 0)"/>
     <use xlink:href="#DejaVuSans-57" transform="translate(580.53125 0)"/>
     <use xlink:href="#DejaVuSans-57" transform="translate(619.734375 0)"/>
     <use xlink:href="#DejaVuSans-48" transform="translate(658.9375 0)"/>
     <use xlink:href="#DejaVuSans-55" transform="translate(720.46875 0)"/>
     <use xlink:href="#DejaVuSans-5c" transform="translate(761.578125 0)"/>
     <use xlink:href="#DejaVuSans-3" transform="translate(820.765625 0)"/>
     <use xlink:href="#DejaVuSans-af6" transform="translate(852.546875 0)"/>
     <use xlink:href="#DejaVuSans-3" transform="translate(952.546875 0)"/>
     <use xlink:href="#DejaVuSans-59" transform="translate(984.328125 0)"/>
     <use xlink:href="#DejaVuSans-48" transform="translate(1043.515625 0)"/>
     <use xlink:href="#DejaVuSans-51" transform="translate(1105.046875 0)"/>
     <use xlink:href="#DejaVuSans-48" transform="translate(1168.421875 0)"/>
     <use xlink:href="#DejaVuSans-57" transform="translate(1229.953125 0)"/>
     <use xlink:href="#DejaVuSans-52" transform="translate(1269.15625 0)"/>
     <use xlink:href="#DejaVuSans-46" transform="translate(1330.34375 0)"/>
     <use xlink:href="#DejaVuSans-4f" transform="translate(1385.328125 0)"/>
     <use xlink:href="#DejaVuSans-44" transform="translate(1413.109375 0)"/>
     <use xlink:href="#DejaVuSans-5b" transform="translate(1474.390625 0)"/>
     <use xlink:href="#DejaVuSans-f" transform="translate(1533.578125 0)"/>
     <use xlink:href="#DejaVuSans-3" transform="translate(1565.359375 0)"/>
     <use xlink:href="#DejaVuSans-27" transform="translate(1597.140625 0)"/>
     <use xlink:href="#DejaVuSans-48" transform="translate(1674.140625 0)"/>
     <use xlink:href="#DejaVuSans-53" transform="translate(1735.671875 0)"/>
     <use xlink:href="#DejaVuSans-30" transform="translate(1799.15625 0)"/>
     <use xlink:href="#DejaVuSans-44" transform="translate(1885.4375 0)"/>
     <use xlink:href="#DejaVuSans-53" transform="translate(1946.71875 0)"/>
     <use xlink:href="#DejaVuSans-3" transform="translate(2010.203125 0)"/>
     <use xlink:href="#DejaVuSans-4b" transform="translate(2041.984375 0)"/>
     <use xlink:href="#DejaVuSans-48" transform="translate(2105.359375 0)"/>
     <use xlink:href="#DejaVuSans-50" transform="translate(2166.890625 0)"/>
     <use xlink:href="#DejaVuSans-48" transform="translate(2264.296875 0)"/>
     <use xlink:href="#DejaVuSans-3" transform="translate(2325.828125 0)"/>
     <use xlink:href="#DejaVuSans-5b" transform="translate(2357.609375 0)"/>
     <use xlink:href="#DejaVuSans-3" transform="translate(2416.796875 0)"/>
     <use xlink:href="#DejaVuSans-2a" transform="translate(2448.578125 0)"/>
     <use xlink:href="#DejaVuSans-27" transform="translate(2526.0625 0)"/>
     <use xlink:href="#DejaVuSans-36" transform="translate(2603.0625 0)"/>
     <use xlink:href="#DejaVuSans-26" transform="translate(2666.546875 0)"/>
     <use xlink:href="#DejaVuSans-15" transform="translate(2736.375 0)"/>
     <use xlink:href="#DejaVuSans-3" transform="translate(2800 0)"/>
     <use xlink:href="#DejaVuSans-b" transform="translate(2831.78125 0)"/>
     <use xlink:href="#DejaVuSans-51" transform="translate(2870.796875 0)"/>
     <use xlink:href="#DejaVuSans-20" transform="translate(2934.171875 0)"/>
     <use xlink:href="#DejaVuSans-14" transform="translate(3017.96875 0)"/>
     <use xlink:href="#DejaVuSans-14" transform="translate(3081.59375 0)"/>
     <use xlink:href="#DejaVuSans-16" transform="translate(3145.21875 0)"/>
     <use xlink:href="#DejaVuSans-c" transform="translate(3208.84375 0)"/>
    </g>
   </g>
   <g id="legend_1">
    <g id="line2d_18">
     <path d="M 355.2275 190.755781 
L 363.2275 190.755781 
L 371.2275 190.755781 
" style="fill: none; stroke-dasharray: 4.81,2.08; stroke-dashoffset: 0; stroke: #d55e00; stroke-width: 1.3"/>
    </g>
    <g id="text_17">
     <!-- random-noise 95% floor (0.19) -->
     <g transform="translate(377.6275 193.555781) scale(0.08 -0.08)">
      <defs>
       <path id="DejaVuSans-1c" d="M 703 97 
L 703 672 
Q 941 559 1184 500 
Q 1428 441 1663 441 
Q 2288 441 2617 861 
Q 2947 1281 2994 2138 
Q 2813 1869 2534 1725 
Q 2256 1581 1919 1581 
Q 1219 1581 811 2004 
Q 403 2428 403 3163 
Q 403 3881 828 4315 
Q 1253 4750 1959 4750 
Q 2769 4750 3195 4129 
Q 3622 3509 3622 2328 
Q 3622 1225 3098 567 
Q 2575 -91 1691 -91 
Q 1453 -91 1209 -44 
Q 966 3 703 97 
z
M 1959 2075 
Q 2384 2075 2632 2365 
Q 2881 2656 2881 3163 
Q 2881 3666 2632 3958 
Q 2384 4250 1959 4250 
Q 1534 4250 1286 3958 
Q 1038 3666 1038 3163 
Q 1038 2656 1286 2365 
Q 1534 2075 1959 2075 
z
" transform="scale(0.015625)"/>
       <path id="DejaVuSans-8" d="M 4653 2053 
Q 4381 2053 4226 1822 
Q 4072 1591 4072 1178 
Q 4072 772 4226 539 
Q 4381 306 4653 306 
Q 4919 306 5073 539 
Q 5228 772 5228 1178 
Q 5228 1588 5073 1820 
Q 4919 2053 4653 2053 
z
M 4653 2450 
Q 5147 2450 5437 2106 
Q 5728 1763 5728 1178 
Q 5728 594 5436 251 
Q 5144 -91 4653 -91 
Q 4153 -91 3862 251 
Q 3572 594 3572 1178 
Q 3572 1766 3864 2108 
Q 4156 2450 4653 2450 
z
M 1428 4353 
Q 1159 4353 1004 4120 
Q 850 3888 850 3481 
Q 850 3069 1003 2837 
Q 1156 2606 1428 2606 
Q 1700 2606 1854 2837 
Q 2009 3069 2009 3481 
Q 2009 3884 1853 4118 
Q 1697 4353 1428 4353 
z
M 4250 4750 
L 4750 4750 
L 1831 -91 
L 1331 -91 
L 4250 4750 
z
M 1428 4750 
Q 1922 4750 2215 4408 
Q 2509 4066 2509 3481 
Q 2509 2891 2217 2550 
Q 1925 2209 1428 2209 
Q 931 2209 642 2551 
Q 353 2894 353 3481 
Q 353 4063 643 4406 
Q 934 4750 1428 4750 
z
" transform="scale(0.015625)"/>
       <path id="DejaVuSans-13b0" d="M 1831 4863 
L 3431 4863 
L 3431 0 
L 2853 0 
L 2853 4384 
L 1825 4384 
Q 1516 4384 1395 4259 
Q 1275 4134 1275 3809 
L 1275 3500 
L 2222 3500 
L 2222 3053 
L 1275 3053 
L 1275 0 
L 697 0 
L 697 3053 
L 147 3053 
L 147 3500 
L 697 3500 
L 697 3744 
Q 697 4328 969 4595 
Q 1241 4863 1831 4863 
z
" transform="scale(0.015625)"/>
      </defs>
      <use xlink:href="#DejaVuSans-55"/>
      <use xlink:href="#DejaVuSans-44" transform="translate(41.109375 0)"/>
      <use xlink:href="#DejaVuSans-51" transform="translate(102.390625 0)"/>
      <use xlink:href="#DejaVuSans-47" transform="translate(165.765625 0)"/>
      <use xlink:href="#DejaVuSans-52" transform="translate(229.25 0)"/>
      <use xlink:href="#DejaVuSans-50" transform="translate(290.4375 0)"/>
      <use xlink:href="#DejaVuSans-10" transform="translate(387.84375 0)"/>
      <use xlink:href="#DejaVuSans-51" transform="translate(423.921875 0)"/>
      <use xlink:href="#DejaVuSans-52" transform="translate(487.296875 0)"/>
      <use xlink:href="#DejaVuSans-4c" transform="translate(548.484375 0)"/>
      <use xlink:href="#DejaVuSans-56" transform="translate(576.265625 0)"/>
      <use xlink:href="#DejaVuSans-48" transform="translate(628.359375 0)"/>
      <use xlink:href="#DejaVuSans-3" transform="translate(689.890625 0)"/>
      <use xlink:href="#DejaVuSans-1c" transform="translate(721.671875 0)"/>
      <use xlink:href="#DejaVuSans-18" transform="translate(785.296875 0)"/>
      <use xlink:href="#DejaVuSans-8" transform="translate(848.921875 0)"/>
      <use xlink:href="#DejaVuSans-3" transform="translate(943.9375 0)"/>
      <use xlink:href="#DejaVuSans-13b0" transform="translate(975.71875 0)"/>
      <use xlink:href="#DejaVuSans-52" transform="translate(1038.703125 0)"/>
      <use xlink:href="#DejaVuSans-52" transform="translate(1099.890625 0)"/>
      <use xlink:href="#DejaVuSans-55" transform="translate(1161.078125 0)"/>
      <use xlink:href="#DejaVuSans-3" transform="translate(1202.1875 0)"/>
      <use xlink:href="#DejaVuSans-b" transform="translate(1233.96875 0)"/>
      <use xlink:href="#DejaVuSans-13" transform="translate(1272.984375 0)"/>
      <use xlink:href="#DejaVuSans-11" transform="translate(1336.609375 0)"/>
      <use xlink:href="#DejaVuSans-14" transform="translate(1368.390625 0)"/>
      <use xlink:href="#DejaVuSans-1c" transform="translate(1432.015625 0)"/>
      <use xlink:href="#DejaVuSans-c" transform="translate(1495.640625 0)"/>
     </g>
    </g>
   </g>
  </g>
 </g>
 <defs>
  <clipPath id="p3ada59a2c3">
   <rect x="124.135" y="26.16" width="383.465" height="176.517656"/>
  </clipPath>
 </defs>
</svg>
